<svg xmlns="http://www.w3.org/2000/svg" version="1.0" width="330.000000pt" height="250.000000pt" viewBox="0 0 330.000000 250.000000" preserveAspectRatio="xMidYMid meet">

<g transform="translate(0.000000,250.000000) scale(0.100000,-0.100000)" fill="#ffffff" stroke="none">
<path d="M1586 2305 c-28 -42 -20 -70 34 -124 53 -53 70 -85 70 -129 0 -27 -11 -48 -75 -136 -19 -26 -35 -52 -35 -57 0 -16 150 146 156 169 9 32 -12 74 -63 128 -58 62 -76 99 -70 141 7 40 4 41 -17 8z" fill="#ffffff"/>
<path d="M1592 2091 c18 -36 18 -41 4 -73 -9 -18 -32 -52 -51 -76 -38 -47 -46 -97 -22 -139 11 -20 12 -18 12 21 0 35 8 55 40 100 75 107 78 114 66 144 -7 16 -25 36 -40 45 l-28 17 19 -39z" fill="#ffffff"/>
<path d="M1240 1731 l-45 -6 3 -75 c3 -99 26 -202 61 -273 l28 -57 -26 -6 c-14 -3 -40 -12 -58 -21 -26 -13 -42 -14 -94 -4 -34 6 -73 18 -87 27 -22 14 -23 18 -9 31 8 8 30 19 48 24 31 8 30 8 -10 3 -100 -11 -105 -45 -14 -90 113 -55 277 -83 493 -84 219 0 404 30 518 86 50 24 68 53 43 68 -5 4 -7 -3 -4 -14 6 -24 -22 -37 -113 -53 -54 -9 -64 -9 -79 6 -9 9 -25 17 -36 17 -32 0 -21 14 32 40 110 54 179 140 179 223 0 44 -28 97 -52 97 -5 0 2 -14 16 -31 49 -58 26 -142 -58 -216 -25 -22 -69 -50 -97 -62 -46 -19 -51 -19 -46 -3 3 9 16 46 28 82 12 36 29 85 37 109 8 24 23 52 34 63 43 43 110 -4 94 -68 -4 -16 -30 -50 -57 -76 -55 -54 -57 -59 -10 -24 73 54 100 125 65 174 -34 49 -136 11 -149 -56 -11 -60 -50 -137 -81 -159 -50 -35 -130 -56 -186 -49 -199 27 -263 233 -98 316 26 13 72 19 185 24 154 7 195 12 195 26 0 4 -28 10 -61 14 -75 7 -526 5 -589 -3z" fill="#ffffff"/>
<path d="M2345 1579 c-40 -21 -181 -216 -334 -464 -132 -212 -173 -272 -233 -335 -46 -48 -52 -52 -56 -34 -4 28 36 126 88 216 45 78 49 107 20 133 -11 10 -17 22 -14 26 3 5 -9 23 -26 40 -27 28 -36 31 -74 27 -24 -3 -65 -16 -92 -29 -62 -31 -177 -145 -239 -239 -94 -142 -200 -251 -257 -265 -58 -15 -76 66 -37 169 42 114 153 256 200 256 42 0 14 -48 -44 -75 -40 -19 -72 -56 -82 -97 -10 -40 26 -72 72 -65 42 7 62 24 115 95 93 125 108 208 43 239 -142 68 -447 -214 -485 -449 -19 -119 37 -198 140 -198 53 0 134 36 169 74 23 24 52 35 50 19 -7 -44 35 -93 78 -93 40 1 104 32 151 74 21 20 42 36 46 36 3 0 6 -13 6 -28 0 -15 5 -33 12 -40 16 -16 87 -15 118 3 14 8 28 14 32 15 3 0 -12 -42 -34 -92 -75 -175 -82 -265 -21 -289 122 -47 321 134 452 411 50 106 50 122 -7 233 -2 4 16 7 39 7 39 0 48 5 101 60 58 60 74 88 41 75 -10 -3 -56 -9 -102 -12 -77 -6 -84 -5 -78 11 7 17 146 224 299 443 43 62 78 117 78 122 0 28 -93 41 -135 20z m99 -17 c2 -4 -11 -6 -30 -4 -19 2 -34 6 -34 8 0 8 59 4 64 -4z m-1081 -399 c-7 -2 -21 -2 -30 0 -10 3 -4 5 12 5 17 0 24 -2 18 -5z m-73 -13 c-8 -5 -19 -10 -25 -10 -5 0 -3 5 5 10 8 5 20 10 25 10 6 0 3 -5 -5 -10z m485 0 c3 -6 -1 -7 -9 -4 -18 7 -21 14 -7 14 6 0 13 -4 16 -10z m-125 -10 c-8 -5 -19 -10 -25 -10 -5 0 -3 5 5 10 8 5 20 10 25 10 6 0 3 -5 -5 -10z m94 -68 c13 -22 -274 -382 -305 -382 -18 0 -9 38 26 108 37 74 148 202 219 254 41 30 52 33 60 20z m-454 -82 c-8 -5 -22 -9 -30 -9 -10 0 -8 3 5 9 27 12 43 12 25 0z m878 -37 c-10 -2 -28 -2 -40 0 -13 2 -5 4 17 4 22 1 32 -1 23 -4z m-187 -195 c7 -102 -48 -240 -143 -360 -55 -70 -63 -40 -22 80 27 78 143 302 157 302 4 0 8 -10 8 -22z m-481 -51 c0 -2 -10 -12 -22 -23 l-23 -19 19 23 c18 21 26 27 26 19z m237 -3 c-3 -3 -12 -4 -19 -1 -8 3 -5 6 6 6 11 1 17 -2 13 -5z m-621 -82 c-10 -2 -22 0 -28 6 -6 6 0 7 19 4 21 -5 23 -7 9 -10z" fill="#ffffff"/>
<path d="M2770 1392 c-99 -98 -130 -142 -99 -142 18 0 108 55 184 112 53 40 71 60 73 81 4 31 -12 57 -34 57 -8 0 -64 -49 -124 -108z m10 -26 c0 -2 -8 -10 -17 -17 -16 -13 -17 -12 -4 4 13 16 21 21 21 13z" fill="#ffffff"/>
<path d="M1123 1383 c15 -2 37 -2 50 0 12 2 0 4 -28 4 -27 0 -38 -2 -22 -4z" fill="#ffffff"/>
<path d="M641 1238 c-11 -24 -11 -33 -3 -36 7 -2 12 -19 12 -37 0 -19 4 -45 10 -59 11 -30 57 -46 71 -25 13 21 11 26 -11 32 -16 4 -20 14 -20 46 0 34 3 41 20 41 12 0 20 7 20 16 0 9 -9 18 -20 21 -11 3 -20 12 -20 19 0 8 -10 14 -23 14 -15 0 -26 -10 -36 -32z" fill="#ffffff"/>
<path d="M760 1170 c0 -93 1 -100 20 -100 17 0 20 7 20 49 0 32 6 55 16 66 26 26 44 1 44 -62 0 -51 2 -54 23 -51 20 3 22 8 22 66 0 55 -4 67 -23 83 -18 14 -29 16 -48 9 -34 -13 -34 -13 -34 15 0 18 -5 25 -20 25 -19 0 -20 -7 -20 -100z" fill="#ffffff"/>
<path d="M963 1228 c-32 -15 -48 -70 -31 -105 17 -36 60 -56 98 -48 39 9 40 35 1 35 -16 0 -36 3 -45 6 -32 12 -15 24 34 24 49 0 50 1 50 30 0 56 -52 84 -107 58z m56 -31 c14 -17 4 -27 -26 -27 -25 0 -29 10 -11 28 15 15 23 15 37 -1z" fill="#ffffff"/>
<path d="M2513 1151 c-191 -105 -367 -383 -339 -533 16 -86 128 -119 230 -69 63 31 158 121 250 235 97 122 109 141 101 166 -13 41 -46 17 -150 -105 -137 -162 -228 -225 -254 -177 -17 33 0 58 69 103 81 52 208 180 249 252 34 60 40 116 15 141 -26 27 -110 20 -171 -13z m110 2 c-7 -2 -21 -2 -30 0 -10 3 -4 5 12 5 17 0 24 -2 18 -5z m-163 -67 c0 -2 -8 -10 -17 -17 -16 -13 -17 -12 -4 4 13 16 21 21 21 13z m110 -33 c0 -31 -163 -203 -178 -188 -11 10 149 195 169 195 5 0 9 -3 9 -7z m-165 -213 c-3 -5 -12 -10 -18 -10 -7 0 -6 4 3 10 19 12 23 12 15 0z m85 -154 c0 -2 -8 -10 -17 -17 -16 -13 -17 -12 -4 4 13 16 21 21 21 13z m-103 -62 c-3 -3 -12 -4 -19 -1 -8 3 -5 6 6 6 11 1 17 -2 13 -5z" fill="#ffffff"/>
</g>
</svg>